<?xml version="1.0" encoding="UTF-8"?>
<svg xmlns="http://www.w3.org/2000/svg"
     width="1024" height="1024"
     viewBox="0 0 1024 1024">

  <g transform="translate(0.000000,1024.000000) scale(0.100000,-0.100000)"
     fill="#5A3A25" stroke="none">
    <path d="M3520 5105 l0 -2602 23 3 c371 58 519 108 723 242 94 63 281 245 366
    357 88 116 167 309 200 490 10 55 13 379 13 1510 0 1355 -1 1445 -18 1523 -44
    201 -119 363 -245 532 -224 300 -545 483 -932 530 -52 6 -103 13 -112 15 -17
    3 -18 -126 -18 -2600z"/>
    <path d="M6630 7693 c-220 -17 -457 -100 -655 -227 -109 -71 -299 -259 -369
    -366 -108 -163 -192 -395 -216 -595 -9 -75 -11 -439 -8 -1455 4 -1332 5 -1357
    25 -1450 30 -134 64 -232 118 -340 59 -118 84 -156 167 -257 197 -238 472
    -398 793 -462 55 -10 130 -22 168 -26 l67 -7 0 2596 0 2596 -22 -2 c-13 -1
    -43 -3 -68 -5z m-300 -2593 c0 -1681 -3 -2110 -12 -2110 -25 0 -184 116 -255
    186 -146 145 -232 330 -263 567 -8 56 -10 503 -7 1412 3 1181 5 1338 19 1400
    61 260 186 448 385 577 38 24 79 52 93 61 14 9 28 16 33 16 4 1 7 -948 7
    -2109z"/>
  </g>

</svg>
